<svg width="24" height="25" viewBox="0 0 24 25" fill="none" xmlns="http://www.w3.org/2000/svg">
<g clip-path="url(#clip0_68_1580)">
<path d="M24 12.1958C24 5.56838 18.6274 0.195801 12 0.195801C5.37258 0.195801 0 5.56838 0 12.1958C0 18.1853 4.3882 23.1498 10.125 24.05V15.6646H7.07812V12.1958H10.125V9.55205C10.125 6.54455 11.9166 4.8833 14.6576 4.8833C15.9701 4.8833 17.3438 5.11768 17.3438 5.11768V8.0708H15.8306C14.34 8.0708 13.875 8.99588 13.875 9.9458V12.1958H17.2031L16.6711 15.6646H13.875V24.05C19.6118 23.1498 24 18.1853 24 12.1958Z" fill="white"/>
</g>
<defs>
<clipPath id="clip0_68_1580">
<rect width="24" height="24" fill="white" transform="translate(0 0.195801)"/>
</clipPath>
</defs>
</svg>
