<svg width="24" height="25" viewBox="0 0 24 25" fill="none" xmlns="http://www.w3.org/2000/svg">
<g clip-path="url(#clip0_68_1577)">
<path d="M22.2234 0.195801H1.77187C0.792187 0.195801 0 0.969238 0 1.92549V22.4614C0 23.4177 0.792187 24.1958 1.77187 24.1958H22.2234C23.2031 24.1958 24 23.4177 24 22.4661V1.92549C24 0.969238 23.2031 0.195801 22.2234 0.195801ZM7.12031 20.6474H3.55781V9.19111H7.12031V20.6474ZM5.33906 7.63018C4.19531 7.63018 3.27188 6.70674 3.27188 5.56768C3.27188 4.42861 4.19531 3.50518 5.33906 3.50518C6.47813 3.50518 7.40156 4.42861 7.40156 5.56768C7.40156 6.70205 6.47813 7.63018 5.33906 7.63018ZM20.4516 20.6474H16.8937V15.0786C16.8937 13.7521 16.8703 12.0411 15.0422 12.0411C13.1906 12.0411 12.9094 13.4896 12.9094 14.9849V20.6474H9.35625V9.19111H12.7687V10.7567H12.8156C13.2891 9.85674 14.4516 8.90518 16.1813 8.90518C19.7859 8.90518 20.4516 11.2771 20.4516 14.3614V20.6474V20.6474Z" fill="white"/>
</g>
<defs>
<clipPath id="clip0_68_1577">
<rect width="24" height="24" fill="white" transform="translate(0 0.195801)"/>
</clipPath>
</defs>
</svg>
