<svg width="285" height="80" viewBox="0 0 285 80" fill="none" xmlns="http://www.w3.org/2000/svg">
<path d="M143.95 65V41.13C143.95 40.1967 143.927 39.0067 143.88 37.56C143.833 36.0667 143.763 34.62 143.67 33.22C143.623 31.7733 143.483 30.63 143.25 29.79L143.46 29.23C144.86 28.6233 146.517 28.0867 148.43 27.62C150.39 27.1067 152.397 26.6867 154.45 26.36C156.55 26.0333 158.533 25.87 160.4 25.87C162.78 25.87 165.043 26.1267 167.19 26.64C169.383 27.1067 171.343 27.97 173.07 29.23C174.797 30.49 176.15 32.24 177.13 34.48C178.11 36.6733 178.6 39.4967 178.6 42.95V65H168.8V43.37C168.8 40.8033 168.427 38.8433 167.68 37.49C166.933 36.09 165.86 35.1333 164.46 34.62C163.06 34.06 161.403 33.78 159.49 33.78C158.09 33.78 156.667 33.9433 155.22 34.27C153.82 34.5967 152.583 34.97 151.51 35.39L152.98 32.94C153.213 33.64 153.4 34.55 153.54 35.67C153.68 36.79 153.75 38.0733 153.75 39.52V65H143.95ZM205.139 65.84C199.306 65.84 194.896 64.8833 191.909 62.97C188.969 61.0567 187.499 57.9533 187.499 53.66C187.499 50.9067 188.176 48.6433 189.529 46.87C190.929 45.0967 192.866 43.79 195.339 42.95C197.859 42.0633 200.753 41.62 204.019 41.62C206.026 41.62 207.776 41.7833 209.269 42.11C210.763 42.39 212.116 42.6933 213.329 43.02V49.32C212.396 48.9933 211.206 48.7133 209.759 48.48C208.313 48.2 206.913 48.06 205.559 48.06C202.526 48.06 200.263 48.48 198.769 49.32C197.323 50.16 196.599 51.5833 196.599 53.59C196.599 55.5033 197.323 56.88 198.769 57.72C200.216 58.56 202.293 58.98 204.999 58.98C206.633 58.98 208.196 58.84 209.689 58.56C211.229 58.2333 212.583 57.7433 213.749 57.09L212.349 59.82C212.163 59.26 211.999 58.7 211.859 58.14C211.719 57.58 211.603 56.9967 211.509 56.39C211.463 55.7833 211.416 55.1067 211.369 54.36C211.369 53.5667 211.369 52.61 211.369 51.49V41.9C211.369 39.52 210.996 37.7233 210.249 36.51C209.503 35.2967 208.406 34.5033 206.959 34.13C205.513 33.71 203.716 33.5 201.569 33.5C199.609 33.5 197.719 33.71 195.899 34.13C194.079 34.5033 192.609 34.9467 191.489 35.46H190.789V27.69C192.469 27.0833 194.359 26.64 196.459 26.36C198.559 26.0333 200.659 25.87 202.759 25.87C205.373 25.87 207.776 26.1033 209.969 26.57C212.209 27.0367 214.146 27.8533 215.779 29.02C217.413 30.1867 218.673 31.8433 219.559 33.99C220.493 36.09 220.959 38.82 220.959 42.18V51C220.959 51.98 220.959 53.2167 220.959 54.71C221.006 56.1567 221.076 57.58 221.169 58.98C221.263 60.38 221.403 61.5 221.589 62.34L221.379 62.9C219.793 63.5067 218.066 64.0433 216.199 64.51C214.379 64.93 212.513 65.2567 210.599 65.49C208.686 65.7233 206.866 65.84 205.139 65.84ZM250.335 65.84C245.995 65.84 242.262 65.1167 239.135 63.67C236.009 62.1767 233.605 59.96 231.925 57.02C230.245 54.0333 229.405 50.2767 229.405 45.75C229.405 41.6433 230.245 38.12 231.925 35.18C233.605 32.1933 235.962 29.9067 238.995 28.32C242.029 26.7333 245.599 25.9167 249.705 25.87C251.385 25.87 252.855 26.01 254.115 26.29C255.422 26.5233 256.379 26.78 256.985 27.06L256.845 34.55C256.239 34.3167 255.469 34.0833 254.535 33.85C253.602 33.6167 252.435 33.5 251.035 33.5C247.162 33.5 244.245 34.5733 242.285 36.72C240.372 38.8667 239.415 41.8767 239.415 45.75C239.415 48.41 239.812 50.6733 240.605 52.54C241.445 54.4067 242.705 55.83 244.385 56.81C246.065 57.7433 248.212 58.21 250.825 58.21C252.225 58.21 253.439 58.0933 254.465 57.86C255.539 57.6267 256.472 57.3467 257.265 57.02L256.355 59.61C255.982 58.8167 255.749 57.86 255.655 56.74C255.562 55.62 255.515 54.4067 255.515 53.1V24.4C255.515 23.28 255.492 21.9267 255.445 20.34C255.399 18.7533 255.329 17.2133 255.235 15.72C255.142 14.2267 255.002 13.1067 254.815 12.36L255.025 11.8H265.315V51.21C265.315 52.1433 265.315 53.3567 265.315 54.85C265.362 56.2967 265.409 57.72 265.455 59.12C265.549 60.52 265.689 61.64 265.875 62.48L265.665 63.04C263.705 63.8333 261.442 64.4867 258.875 65C256.355 65.56 253.509 65.84 250.335 65.84Z" fill="white"/>
<circle cx="101.5" cy="32.5" r="28" stroke="white" stroke-width="9"/>
<circle cx="101.5" cy="32.5" r="5.5" fill="white"/>
<path d="M5.95 65V14.6H14.35L31.92 42.88H27.79L45.22 14.6H53.62V65H43.61V29.51L45.71 30.07L32.62 51.14H26.95L13.79 30.21L15.89 29.65V65H5.95Z" fill="white"/>
</svg>
