<svg width="24" height="20" viewBox="0 0 24 20" fill="none" xmlns="http://www.w3.org/2000/svg">
<path d="M7.55016 19.9458C16.6045 19.9458 21.5583 12.4425 21.5583 5.93766C21.5583 5.72672 21.5536 5.5111 21.5442 5.30016C22.5079 4.60326 23.3395 3.74005 24 2.7511C23.1025 3.1504 22.1496 3.41118 21.1739 3.52454C22.2013 2.90871 22.9705 1.94127 23.3391 0.801568C22.3726 1.37436 21.3156 1.77841 20.2134 1.99641C19.4708 1.20736 18.489 0.684917 17.4197 0.509852C16.3504 0.334786 15.2532 0.516851 14.2977 1.0279C13.3423 1.53894 12.5818 2.35051 12.1338 3.33711C11.6859 4.32372 11.5754 5.43042 11.8195 6.4861C9.86249 6.38789 7.94794 5.87951 6.19998 4.9939C4.45203 4.10829 2.90969 2.86524 1.67297 1.34532C1.0444 2.42904 0.852057 3.71145 1.13503 4.93189C1.418 6.15234 2.15506 7.21925 3.19641 7.91579C2.41463 7.89097 1.64998 7.68048 0.965625 7.30172V7.36266C0.964925 8.49995 1.3581 9.60239 2.07831 10.4826C2.79852 11.3628 3.80132 11.9664 4.91625 12.1908C4.19206 12.3889 3.43198 12.4178 2.69484 12.2752C3.00945 13.2532 3.62157 14.1087 4.44577 14.7221C5.26997 15.3356 6.26512 15.6764 7.29234 15.697C5.54842 17.0669 3.39417 17.8099 1.17656 17.8064C0.783287 17.8058 0.390399 17.7817 0 17.7342C2.25286 19.1795 4.87353 19.9472 7.55016 19.9458Z" fill="white"/>
</svg>
